
<svg width="200" height="200" viewBox="0 0 200 200" fill="none" xmlns="http://www.w3.org/2000/svg">
  <rect x="110" y="80" width="70" height="100" rx="8" fill="#333333" />
  <rect x="120" y="90" width="50" height="30" fill="#43A047" />
  <rect x="120" y="130" width="50" height="5" fill="#E0E0E0" />
  <rect x="120" y="140" width="40" height="5" fill="#E0E0E0" />
  <rect x="120" y="150" width="30" height="5" fill="#E0E0E0" />
  <circle cx="50" cy="70" r="20" fill="#FFB74D" />
  <text x="50" y="75" font-family="Arial" font-size="20" fill="#FFFFFF" text-anchor="middle">€</text>
  <path d="M100 40C111.046 40 120 48.9543 120 60C120 71.0457 111.046 80 100 80C88.9543 80 80 71.0457 80 60C80 48.9543 88.9543 40 100 40Z" fill="#64B5F6" />
  <path d="M120 75H80C71.7157 75 65 81.7157 65 90V140H135V90C135 81.7157 128.284 75 120 75Z" fill="#64B5F6" />
  <path d="M45 110L75 110" stroke="#333333" stroke-width="2" stroke-linecap="round" />
  <path d="M60 95L60 125" stroke="#333333" stroke-width="2" stroke-linecap="round" />
  <circle cx="155" cy="50" r="15" fill="#EF5350" />
  <path d="M148 50L162 50" stroke="white" stroke-width="2" stroke-linecap="round" />
</svg>
