
<svg width="200" height="200" viewBox="0 0 200 200" fill="none" xmlns="http://www.w3.org/2000/svg">
  <circle cx="130" cy="70" r="15" fill="#E0E0E0" />
  <circle cx="100" cy="60" r="15" fill="#E0E0E0" />
  <circle cx="70" cy="80" r="15" fill="#E0E0E0" />
  <path d="M100 80C111.046 80 120 71.0457 120 60C120 48.9543 111.046 40 100 40C88.9543 40 80 48.9543 80 60C80 71.0457 88.9543 80 100 80Z" fill="#64B5F6" />
  <path d="M120 90H80C71.7157 90 65 96.7157 65 105V145H135V105C135 96.7157 128.284 90 120 90Z" fill="#64B5F6" />
  <path d="M115 115C123.837 115 131 107.837 131 99C131 90.1634 123.837 83 115 83C106.163 83 99 90.1634 99 99C99 107.837 106.163 115 115 115Z" fill="#333333" />
  <path d="M115 107C119.418 107 123 103.418 123 99C123 94.5817 119.418 91 115 91C110.582 91 107 94.5817 107 99C107 103.418 110.582 107 115 107Z" fill="#FFFFFF" />
  <path d="M79 120L94 120" stroke="black" stroke-width="2" stroke-linecap="round" />
  <path d="M79 130L89 130" stroke="black" stroke-width="2" stroke-linecap="round" />
  <circle cx="125" cy="142" r="25" fill="#5C6BC0" />
  <path d="M115 142H135" stroke="white" stroke-width="3" stroke-linecap="round" />
  <path d="M125 132V152" stroke="white" stroke-width="3" stroke-linecap="round" />
  <rect x="90" y="145" width="40" height="15" rx="2" fill="#333333" />
</svg>
