
<svg width="200" height="200" viewBox="0 0 200 200" fill="none" xmlns="http://www.w3.org/2000/svg">
  <rect x="115" y="70" width="60" height="110" rx="8" fill="#5C6BC0" />
  <rect x="125" y="80" width="40" height="70" fill="#FFFFFF" />
  <circle cx="145" cy="165" r="5" fill="#E0E0E0" />
  <rect x="65" y="60" width="100" height="60" rx="4" fill="#4DB6AC" />
  <rect x="75" y="70" width="80" height="10" fill="#B2DFDB" />
  <rect x="75" y="90" width="80" height="5" fill="#FFFFFF" opacity="0.5" />
  <rect x="75" y="100" width="60" height="5" fill="#FFFFFF" opacity="0.5" />
  <path d="M100 40C111.046 40 120 48.9543 120 60C120 71.0457 111.046 80 100 80C88.9543 80 80 71.0457 80 60C80 48.9543 88.9543 40 100 40Z" fill="#64B5F6" />
  <path d="M120 80H80C71.7157 80 65 86.7157 65 95V145H135V95C135 86.7157 128.284 80 120 80Z" fill="#64B5F6" />
  <path d="M70 95C75.5228 95 80 90.5228 80 85C80 79.4772 75.5228 75 70 75C64.4772 75 60 79.4772 60 85C60 90.5228 64.4772 95 70 95Z" fill="#333333" />
  <path d="M130 95C135.523 95 140 90.5228 140 85C140 79.4772 135.523 75 130 75C124.477 75 120 79.4772 120 85C120 90.5228 124.477 95 130 95Z" fill="#333333" />
  <rect x="75" y="110" width="50" height="2" fill="#333333" />
  <rect x="75" y="115" width="40" height="2" fill="#333333" />
</svg>
